# xmcd
#
# Track frame offsets:
#	150
#	9940
#	26127
#	37028
#	48902
#	59227
#	80124
#	89609
#	101607
#	110755
#	119241
#	126888
#	136250
#	151320
#	159150
#	168240
#
# Disc length: 2359 seconds
#
# Revision: 0
# Processed by: cddbd v1.5.2PL0 Copyright (c) Steve Scherf et al.
# Submitted via: EZCDAudioConverter 7.1.5.1
#
DISCID=dd093510
DTITLE=Paul Brown - Old-Time Tiki Parlour
DYEAR=2018
DGENRE=Old-Time Country
TTITLE0=Blue Goose
TTITLE1=Mississippi Sawyer
TTITLE2=Hop Light Ladies
TTITLE3=Brushy Fork of John's Creek
TTITLE4=Cotton-Eyed Joe
TTITLE5=Little Maggie
TTITLE6=Old Corn Liquor
TTITLE7=Paddy on the Turnpike
TTITLE8=Devil in the Strawstack
TTITLE9=Cuckoo's Nest
TTITLE10=Fisher's Hornpipe
TTITLE11=Brown-Eyed Rabbit
TTITLE12=Round Town Gals
TTITLE13=Cousin Sally Brown
TTITLE14=Wild Goose Chase
TTITLE15=Arkansas Traveler
EXTD=
EXTT0=
EXTT1=
EXTT2=
EXTT3=
EXTT4=
EXTT5=
EXTT6=
EXTT7=
EXTT8=
EXTT9=
EXTT10=
EXTT11=
EXTT12=
EXTT13=
EXTT14=
EXTT15=
PLAYORDER=
